# xmcd
#
# Track frame offsets: 
#        150
#        10537
#        27732
#        47943
#        71839
#        82711
#        97612
#        114026
#        127923
#        142865
#        158168
#        169259
#        182954
#        195160
#        216490
#        232640
#        247191
#        265161
#        283476
#
# Disc length: 4004 seconds
#
# Revision: 0
# Processed by: cddbd v1.5.2PL0 Copyright (c) Steve Scherf et al.
# Submitted via: ExactAudioCopy v1.1
#
DISCID=fc0fa213
DTITLE=Various Artist - 1000 Klassiekers Radio 2 Vol. 02 - CD 1
DYEAR=2010
DGENRE=Pop
TTITLE0=Louis Armstrong - What A Wonderful World
TTITLE1=A-Ha - Take On Me
TTITLE2=Wham! - Last Christmas
TTITLE3=James Brown - Sex Machine
TTITLE4=Aretha Franklin - Respect
TTITLE5=Ann Christy - Dag Vreemde Man
TTITLE6=The Pebbles - Seven Horses In The Sky
TTITLE7=Johnny Logan - Hold Me Now
TTITLE8=Gérard Lenorman - La Ballade Des Gens Heureux
TTITLE9=Dawn Feat. Tony Orlando - Tie A Yellow Ribbon Round The Ole Oa
TTITLE9=k Tree
TTITLE10=Boudewijn De Groot - Verdronken Vlinder
TTITLE11=Billy Ocean - Love Really Hurts Without You
TTITLE12=Peter En Zijn Rockets - Kom Van Dat Dak Af (Heruitgave)
TTITLE13=Santana - Samba Pa Ti
TTITLE14=Linda Ronstadt Feat. Aaron Neville - Don't Know Much
TTITLE15=Aphrodite's Child - Rain And Tears
TTITLE16=Ram Jam - Black Betty
TTITLE17=Toto - Rosanna
TTITLE18=The Boomtown Rats - I Don't Like Mondays
EXTD=
EXTT0=
EXTT1=
EXTT2=
EXTT3=
EXTT4=
EXTT5=
EXTT6=
EXTT7=
EXTT8=
EXTT9=
EXTT10=
EXTT11=
EXTT12=
EXTT13=
EXTT14=
EXTT15=
EXTT16=
EXTT17=
EXTT18=
PLAYORDER=
